<svg width="57" height="32" viewBox="0 0 57 32" fill="none" xmlns="http://www.w3.org/2000/svg">
<path d="M54.3038 22.084C53.1385 22.084 52.2123 21.7404 51.5251 21.0532C50.8528 20.3511 50.5166 19.3576 50.5166 18.0728V12.0896H48.5895V9.5126H56.455V12.0896H53.7211V18.1849C53.7211 18.5733 53.8332 18.8646 54.0573 19.0588C54.2814 19.253 54.5353 19.3501 54.8192 19.3501C54.9984 19.3501 55.1628 19.3203 55.3122 19.2605C55.4765 19.2007 55.6334 19.1111 55.7828 18.9916L56.9032 21.1653C56.5148 21.479 56.1114 21.7105 55.6931 21.8599C55.2748 22.0093 54.8117 22.084 54.3038 22.084ZM49.5307 10.4986V9.5126C49.8593 9.5126 50.1133 9.41549 50.2926 9.22128C50.4868 9.02707 50.5839 8.76563 50.5839 8.43696V6.44257H53.7211V7.92156C53.7211 8.14565 53.6614 8.36974 53.5419 8.59383C53.4373 8.81792 53.2879 9.01213 53.0937 9.17646C52.8995 9.34079 52.6679 9.45284 52.399 9.5126L49.5307 10.4986Z" fill="black"/>
<path d="M43.9448 21.9272V9.51261H47.1268V21.9272H43.9448ZM45.5582 8.01121C44.9307 8.01121 44.4079 7.82446 43.9896 7.45098C43.5713 7.06256 43.3621 6.5845 43.3621 6.01681C43.3621 5.44911 43.5713 4.97106 43.9896 4.58263C44.4079 4.19421 44.9307 4 45.5582 4C46.1857 4 46.7085 4.19421 47.1268 4.58263C47.5451 4.97106 47.7543 5.44911 47.7543 6.01681C47.7543 6.5845 47.5451 7.06256 47.1268 7.45098C46.7085 7.82446 46.1857 8.01121 45.5582 8.01121Z" fill="black"/>
<path d="M31.3341 21.9272V5.34454H34.4938V14.5322C35.2407 14.3828 35.9504 14.0915 36.6226 13.6583C37.2949 13.2101 37.8775 12.6349 38.3705 11.9328C38.8635 11.2306 39.2071 10.4239 39.4013 9.51261H42.7627C42.5237 10.4687 42.1352 11.3576 41.5974 12.1793C41.0745 13.0009 40.462 13.718 39.7599 14.3305C39.0577 14.9431 38.3257 15.3987 37.5638 15.6975C38.1464 15.8618 38.7291 16.1457 39.3117 16.549C39.8943 16.9375 40.4396 17.4155 40.9476 17.9832C41.4555 18.536 41.8887 19.1485 42.2473 19.8207C42.6058 20.493 42.8449 21.1952 42.9644 21.9272H39.603C39.4536 21.24 39.2071 20.62 38.8635 20.0672C38.5199 19.4995 38.1166 19.0065 37.6534 18.5882C37.2053 18.155 36.7048 17.8039 36.152 17.535C35.6142 17.2661 35.0615 17.1018 34.4938 17.042V21.9272H31.3341Z" fill="black"/>
<path d="M22.6006 28C21.5996 28 20.6659 27.8431 19.7994 27.5294C18.933 27.2306 18.186 26.775 17.5585 26.1625C16.9311 25.55 16.4754 24.803 16.1916 23.9216L19.0151 22.8684C19.3139 23.6153 19.777 24.2054 20.4045 24.6387C21.0319 25.0868 21.7416 25.3109 22.5333 25.3109C23.2056 25.3109 23.7808 25.1765 24.2588 24.9076C24.7369 24.6387 25.1029 24.2428 25.3569 23.7199C25.6258 23.212 25.7602 22.5994 25.7602 21.8824V19.1933C25.4465 20.1046 24.9236 20.8142 24.1916 21.3221C23.4596 21.8301 22.6006 22.084 21.6146 22.084C20.524 22.084 19.5529 21.8151 18.7014 21.2773C17.8648 20.7246 17.2075 19.9701 16.7294 19.014C16.2514 18.043 16.0123 16.9449 16.0123 15.7199C16.0123 14.4799 16.2514 13.3819 16.7294 12.4258C17.2075 11.4697 17.8648 10.7227 18.7014 10.1849C19.5529 9.63212 20.524 9.35574 21.6146 9.35574C22.6006 9.35574 23.4596 9.60971 24.1916 10.1176C24.9236 10.6256 25.4465 11.3277 25.7602 12.2241V9.51261H28.9423V21.8375C28.9423 22.704 28.8079 23.5033 28.5389 24.2353C28.27 24.9823 27.8741 25.6321 27.3513 26.1849C26.8284 26.7526 26.1711 27.1933 25.3793 27.507C24.5875 27.8357 23.6613 28 22.6006 28ZM22.5109 19.3277C23.0786 19.3277 23.609 19.1933 24.102 18.9244C24.595 18.6405 24.9909 18.2297 25.2896 17.6919C25.6034 17.1391 25.7602 16.4818 25.7602 15.7199C25.7602 14.943 25.6034 14.2857 25.2896 13.7479C24.9909 13.2101 24.595 12.8067 24.102 12.5378C23.609 12.254 23.0786 12.112 22.5109 12.112C21.9432 12.112 21.4054 12.254 20.8975 12.5378C20.4045 12.8067 20.0011 13.2101 19.6874 13.7479C19.3886 14.2857 19.2392 14.943 19.2392 15.7199C19.2392 16.4818 19.3886 17.1391 19.6874 17.6919C20.0011 18.2297 20.4045 18.6405 20.8975 18.9244C21.4054 19.1933 21.9432 19.3277 22.5109 19.3277Z" fill="black"/>
<path d="M11.1882 21.9272V9.51261H14.3703V21.9272H11.1882ZM12.8017 8.01121C12.1742 8.01121 11.6513 7.82446 11.233 7.45098C10.8147 7.06256 10.6056 6.5845 10.6056 6.01681C10.6056 5.44911 10.8147 4.97106 11.233 4.58263C11.6513 4.19421 12.1742 4 12.8017 4C13.4291 4 13.952 4.19421 14.3703 4.58263C14.7886 4.97106 14.9977 5.44911 14.9977 6.01681C14.9977 6.5845 14.7886 7.06256 14.3703 7.45098C13.952 7.82446 13.4291 8.01121 12.8017 8.01121Z" fill="black"/>
<path d="M0 6.28571H9.68068V8.84033H3.15967V12.8291H8.15687V15.3165H3.15967V21.9272H0V6.28571Z" fill="black"/>
</svg>
