<svg width="93" height="34" viewBox="0 0 93 34" fill="none" xmlns="http://www.w3.org/2000/svg">
<rect x="0.0148926" y="3.39999" width="26" height="26" rx="13" fill="black"/>
<path d="M9.30139 10.4H16.7283V12.3599H11.7255V15.4201H15.5593V17.3284H11.7255V22.4H9.30139V10.4Z" fill="white"/>
<path d="M90.2889 23.684C89.1236 23.684 88.1974 23.3404 87.5102 22.6532C86.8379 21.9511 86.5018 20.9576 86.5018 19.6728V13.6896H84.5746V11.1126H92.4401V13.6896H89.7062V19.7849C89.7062 20.1733 89.8183 20.4646 90.0424 20.6588C90.2665 20.853 90.5204 20.9501 90.8043 20.9501C90.9835 20.9501 91.1479 20.9203 91.2973 20.8605C91.4616 20.8007 91.6185 20.7111 91.7679 20.5916L92.8883 22.7653C92.4999 23.079 92.0965 23.3106 91.6782 23.4599C91.2599 23.6093 90.7968 23.684 90.2889 23.684ZM85.5158 12.0986V11.1126C85.8444 11.1126 86.0984 11.0155 86.2777 10.8213C86.4719 10.6271 86.569 10.3656 86.569 10.037V8.04257H89.7062V9.52157C89.7062 9.74565 89.6465 9.96974 89.527 10.1938C89.4224 10.4179 89.273 10.6121 89.0788 10.7765C88.8846 10.9408 88.653 11.0528 88.3841 11.1126L85.5158 12.0986Z" fill="black"/>
<path d="M79.9298 23.5272V11.1126H83.1119V23.5272H79.9298ZM81.5432 9.61121C80.9158 9.61121 80.3929 9.42447 79.9746 9.05099C79.5563 8.66256 79.3472 8.18451 79.3472 7.61681C79.3472 7.04912 79.5563 6.57106 79.9746 6.18264C80.3929 5.79422 80.9158 5.60001 81.5432 5.60001C82.1707 5.60001 82.6936 5.79422 83.1119 6.18264C83.5302 6.57106 83.7393 7.04912 83.7393 7.61681C83.7393 8.18451 83.5302 8.66256 83.1119 9.05099C82.6936 9.42447 82.1707 9.61121 81.5432 9.61121Z" fill="black"/>
<path d="M67.3192 23.5272V6.94455H70.4789V16.1322C71.2258 15.9828 71.9355 15.6915 72.6077 15.2583C73.28 14.8101 73.8626 14.2349 74.3556 13.5328C74.8486 12.8306 75.1922 12.0239 75.3864 11.1126H78.7478C78.5088 12.0687 78.1203 12.9576 77.5825 13.7793C77.0596 14.6009 76.4471 15.318 75.745 15.9305C75.0428 16.5431 74.3108 16.9987 73.5489 17.2975C74.1315 17.4618 74.7142 17.7457 75.2968 18.149C75.8794 18.5375 76.4247 19.0155 76.9327 19.5832C77.4406 20.136 77.8738 20.7485 78.2324 21.4207C78.5909 22.093 78.83 22.7952 78.9495 23.5272H75.5881C75.4387 22.84 75.1922 22.22 74.8486 21.6672C74.505 21.0996 74.1017 20.6066 73.6385 20.1883C73.1904 19.755 72.6899 19.4039 72.1371 19.135C71.5993 18.8661 71.0466 18.7018 70.4789 18.642V23.5272H67.3192Z" fill="black"/>
<path d="M58.5857 29.6C57.5847 29.6 56.651 29.4432 55.7846 29.1294C54.9181 28.8306 54.1711 28.375 53.5437 27.7625C52.9162 27.15 52.4606 26.403 52.1767 25.5216L55.0002 24.4684C55.299 25.2153 55.7621 25.8054 56.3896 26.2387C57.017 26.6868 57.7267 26.9109 58.5184 26.9109C59.1907 26.9109 59.7659 26.7765 60.2439 26.5076C60.722 26.2387 61.088 25.8428 61.342 25.3199C61.6109 24.812 61.7453 24.1995 61.7453 23.4824V20.7933C61.4316 21.7046 60.9087 22.4142 60.1767 22.9221C59.4447 23.4301 58.5857 23.684 57.5997 23.684C56.5091 23.684 55.5381 23.4151 54.6865 22.8773C53.8499 22.3246 53.1926 21.5701 52.7145 20.614C52.2365 19.643 51.9974 18.5449 51.9974 17.3199C51.9974 16.0799 52.2365 14.9819 52.7145 14.0258C53.1926 13.0697 53.8499 12.3227 54.6865 11.7849C55.5381 11.2321 56.5091 10.9557 57.5997 10.9557C58.5857 10.9557 59.4447 11.2097 60.1767 11.7177C60.9087 12.2256 61.4316 12.9277 61.7453 13.8241V11.1126H64.9274V23.4375C64.9274 24.304 64.793 25.1033 64.5241 25.8353C64.2551 26.5823 63.8593 27.2321 63.3364 27.7849C62.8135 28.3526 62.1562 28.7933 61.3644 29.107C60.5726 29.4357 59.6464 29.6 58.5857 29.6ZM58.496 20.9277C59.0637 20.9277 59.5941 20.7933 60.0871 20.5244C60.5801 20.2405 60.976 19.8297 61.2748 19.2919C61.5885 18.7391 61.7453 18.0818 61.7453 17.3199C61.7453 16.5431 61.5885 15.8857 61.2748 15.3479C60.976 14.8101 60.5801 14.4067 60.0871 14.1378C59.5941 13.854 59.0637 13.7121 58.496 13.7121C57.9283 13.7121 57.3905 13.854 56.8826 14.1378C56.3896 14.4067 55.9862 14.8101 55.6725 15.3479C55.3737 15.8857 55.2243 16.5431 55.2243 17.3199C55.2243 18.0818 55.3737 18.7391 55.6725 19.2919C55.9862 19.8297 56.3896 20.2405 56.8826 20.5244C57.3905 20.7933 57.9283 20.9277 58.496 20.9277Z" fill="black"/>
<path d="M47.1733 23.5272V11.1126H50.3554V23.5272H47.1733ZM48.7868 9.61121C48.1593 9.61121 47.6364 9.42447 47.2181 9.05099C46.7998 8.66256 46.5907 8.18451 46.5907 7.61681C46.5907 7.04912 46.7998 6.57106 47.2181 6.18264C47.6364 5.79422 48.1593 5.60001 48.7868 5.60001C49.4142 5.60001 49.9371 5.79422 50.3554 6.18264C50.7737 6.57106 50.9829 7.04912 50.9829 7.61681C50.9829 8.18451 50.7737 8.66256 50.3554 9.05099C49.9371 9.42447 49.4142 9.61121 48.7868 9.61121Z" fill="black"/>
<path d="M35.9851 7.88571H45.6658V10.4403H39.1448V14.4291H44.142V16.9165H39.1448V23.5272H35.9851V7.88571Z" fill="black"/>
</svg>
